# xmcd
#
# Track frame offsets: 
#        150
#        14480
#        30525
#        67922
#        94615
#        139025
#
# Disc length: 4770 seconds
#
# Revision: 0
# Processed by: cddbd v1.5.2PL0 Copyright (c) Steve Scherf et al.
# Submitted via: ExactAudioCopy v0.95b4
#
DISCID=4312a006
DTITLE=Prefecto - Anything for love
DYEAR=1900
DGENRE=
TTITLE0=radio edit
TTITLE1=radio edit long
TTITLE2=plug´n´play trance mix
TTITLE3=etxended mix
TTITLE4=full pressure
TTITLE5=video
EXTD=
EXTT0=
EXTT1=
EXTT2=
EXTT3=
EXTT4=
EXTT5=
PLAYORDER=
